# xmcd
#
# Track frame offsets: 
#        150
#        21930
#        32601
#        49369
#        67162
#        84348
#        100074
#        114391
#        129748
#        145441
#        155709
#        174110
#        193843
#        205276
#        218898
#
# Disc length: 3153 seconds
#
# Revision: 5
# Processed by: cddbd v1.5.2PL0 Copyright (c) Steve Scherf et al.
# Submitted via: ExactAudioCopy v0.99pb5
#
DISCID=dd0c4f0f
DTITLE=Various Artist - Classic Country - TL 626-17 - 1976 - 1982 - CD 2
DYEAR=2001
DGENRE=Country
TTITLE0=Alabama - Take me down
TTITLE1=Reba McEntire - I'd really love to see you tonight
TTITLE2=Lee Greenwood - Ring on her finger, time on her hands
TTITLE3=Waylon Jennings and Jessi Colter - Suspicious minds
TTITLE4=T.G. Sheppard - Last cheater's waltz
TTITLE5=Oak Ridge Boys - Sail away
TTITLE6=Dolly Parton - I really got the feeling
TTITLE7=John Conlee - Rose colored glasses
TTITLE8=Crystal Gayle - I'll get over you
TTITLE9=Statler Brothers - Do you know you are my sunshine
TTITLE10=Juice Newton - Break it to me gently
TTITLE11=Eddie Rabbitt - Suspicions
TTITLE12=Dave and Sugar - Golden tears
TTITLE13=Ronnie Milsap - (I'm a) stand by my woman man
TTITLE14=Emmylou Harris - Together again
EXTD=
EXTT0=
EXTT1=
EXTT2=
EXTT3=
EXTT4=
EXTT5=
EXTT6=
EXTT7=
EXTT8=
EXTT9=
EXTT10=
EXTT11=
EXTT12=
EXTT13=
EXTT14=
PLAYORDER=
